<svg width="21" height="20" viewBox="0 0 21 20" fill="none" xmlns="http://www.w3.org/2000/svg">
<path fill-rule="evenodd" clip-rule="evenodd" d="M10.5674 20C16.0902 20 20.5674 15.5228 20.5674 10C20.5674 4.47715 16.0902 0 10.5674 0C5.04453 0 0.567383 4.47715 0.567383 10C0.567383 15.5228 5.04453 20 10.5674 20ZM10.5827 17.9969C10.5723 18.0001 10.5673 18 10.5673 18C10.5673 18 10.5622 18 10.5521 17.9969C10.541 17.9935 10.5189 17.9852 10.486 17.9649C10.4168 17.9225 10.3129 17.8359 10.1851 17.6738C9.92488 17.3436 9.64678 16.8038 9.39478 16.0477C8.96468 14.7574 8.66288 12.9972 8.58638 11H12.5484C12.4719 12.9972 12.1701 14.7574 11.74 16.0477C11.488 16.8038 11.2099 17.3436 10.9497 17.6738C10.8219 17.8359 10.718 17.9225 10.6488 17.9649C10.6159 17.9852 10.5938 17.9935 10.5827 17.9969ZM12.5484 9H8.58638C8.66288 7.00275 8.96468 5.24257 9.39478 3.95227C9.64678 3.19616 9.92488 2.65642 10.1851 2.32624C10.3129 2.16408 10.4168 2.07752 10.486 2.03507C10.5189 2.01483 10.541 2.00645 10.5521 2.00305C10.5617 2.00013 10.567 2.00001 10.5674 2C10.5678 2 10.573 2.0001 10.5827 2.00305C10.5938 2.00645 10.6159 2.01483 10.6488 2.03507C10.718 2.07752 10.8219 2.16408 10.9497 2.32624C11.2099 2.65642 11.488 3.19616 11.74 3.95227C12.1701 5.24257 12.4719 7.00275 12.5484 9ZM14.5497 11C14.4725 13.1737 14.1456 15.1555 13.6374 16.6802C13.541 16.9694 13.4361 17.2483 13.3222 17.5131C16.0828 16.5005 18.1302 14.0099 18.5055 11H14.5497ZM18.5055 9H14.5497C14.4725 6.8263 14.1456 4.84448 13.6374 3.31981C13.541 3.03058 13.4361 2.7517 13.3222 2.48695C16.0828 3.49947 18.1302 5.9901 18.5055 9ZM6.58504 9C6.66225 6.8263 6.98915 4.84448 7.49738 3.31981C7.59379 3.03057 7.69872 2.7517 7.81259 2.48695C5.05199 3.49947 3.0046 5.9901 2.62927 9H6.58504ZM2.62927 11C3.0046 14.0099 5.05199 16.5005 7.81259 17.5131C7.69872 17.2483 7.59379 16.9694 7.49738 16.6802C6.98915 15.1555 6.66225 13.1737 6.58504 11H2.62927Z" fill="#02171A"/>
</svg>
