<svg width="34" height="25" fill="none" xmlns="http://www.w3.org/2000/svg">
                            <path fill-rule="evenodd" clip-rule="evenodd" d="M28.917 11.658l-.02.01-3.376 1.38-.103.047-.823 3.764c-.055.128-.218.159-.33.051L21.805 14l-.012-.008L7.92 19.949a.081.081 0 01-.04.01.094.094 0 01-.054-.17l11.993-8.985-1.517-3.468c-.076-.158.064-.326.25-.28l3.676.907 2.854-2.542c.123-.096.29-.028.322.125l.278 3.82 3.291 1.927c.141.09.121.3-.056.365zM27.24.74C22.983-.932 18.3.324 15.41 3.538L4.134 15.628c-.152.163-.081.368.103.395l3.004.185c.241.015.271.221.15.363L.047 24.5c-.128.139.027.354.202.3l10.485-3.316c.221-.077.392.12.298.294L9.63 24.26c-.072.141.064.335.24.322l15.115-3.37a10.657 10.657 0 008.27-6.638C35.415 9.09 32.718 2.898 27.24.74z" fill="#fff"></path>
                        </svg>